<svg version="1.1" id="Layer_1" xmlns="http://www.w3.org/2000/svg" xmlns:xlink="http://www.w3.org/1999/xlink" x="0px" y="0px" viewBox="0 0 825 141" style="enable-background:new 0 0 825 141;" xml:space="preserve">

    <path d="M112.5,83h-100C5.6,83,0,77.4,0,70.5S5.6,58,12.5,58h100c6.9,0,12.5,5.6,12.5,12.5S119.4,83,112.5,83z" />
    <path d="M637.1,83H449.7c-6.9,0-12.5-5.6-12.5-12.5S442.8,58,449.7,58h187.3c6.9,0,12.5,5.6,12.5,12.5S644,83,637.1,83z" />
    <path d="M812,83H712c-6.9,0-12.5-5.6-12.5-12.5S705.1,58,712,58h100c6.9,0,12.5,5.6,12.5,12.5S818.9,83,812,83z" />
    <path d="M374.8,83H187.4c-6.9,0-12.5-5.6-12.5-12.5S180.5,58,187.4,58h187.3c6.9,0,12.5,5.6,12.5,12.5S381.7,83,374.8,83z" />
    
    <g className="rightArrow">
        <path d="M12.5,83c2.4,0,4.9-0.7,7-2.2l85-58c5.7-3.9,7.2-11.7,3.3-17.4c-3.9-5.7-11.7-7.2-17.4-3.3l-85,58c-5.7,3.9-7.2,11.7-3.3,17.4C4.6,81.1,8.5,83,12.5,83z" />
        <path d="M97.5,141c4,0,7.9-1.9,10.3-5.5c3.9-5.7,2.4-13.5-3.3-17.4l-85-58c-5.7-3.9-13.5-2.4-17.4,3.3c-3.9,5.7-2.4,13.5,3.3,17.4l85,58C92.6,140.3,95.1,141,97.5,141z" />
    </g>
    
    <g className="leftArrow">
        <path d="M812.5,83c-2.4,0-4.9-0.7-7-2.2l-85-58c-5.7-3.9-7.2-11.7-3.3-17.4c3.9-5.7,11.7-7.2,17.4-3.3l85,58c5.7,3.9,7.2,11.7,3.3,17.4C820.4,81.1,816.5,83,812.5,83z" />
        <path d="M727.5,141c-4,0-7.9-1.9-10.3-5.5c-3.9-5.7-2.4-13.5,3.3-17.4l85-58c5.7-3.9,13.5-2.4,17.4,3.3c3.9,5.7,2.4,13.5-3.3,17.4l-85,58C732.4,140.3,729.9,141,727.5,141z" />
    </g>

    
</svg>