<svg version="1.1" id="Layer_1" xmlns="http://www.w3.org/2000/svg" viewBox="0 0 825 141">
    <g className="solidLine">
        <path d="M812,83H12.5C5.6,83,0,77.4,0,70.5C0,63.6,5.6,58,12.5,58H812c6.9,0,12.5,5.6,12.5,12.5C824.5,77.4,818.9,83,812,83z" />
    </g>
    
    <g className="rightArrow">
        <path d="M12.5,83c2.4,0,4.9-0.7,7-2.2l85-58c5.7-3.9,7.2-11.7,3.3-17.4c-3.9-5.7-11.7-7.2-17.4-3.3l-85,58c-5.7,3.9-7.2,11.7-3.3,17.4C4.6,81.1,8.5,83,12.5,83z" />
        <path d="M97.5,141c4,0,7.9-1.9,10.3-5.5c3.9-5.7,2.4-13.5-3.3-17.4l-85-58c-5.7-3.9-13.5-2.4-17.4,3.3c-3.9,5.7-2.4,13.5,3.3,17.4l85,58C92.6,140.3,95.1,141,97.5,141z" />
    </g>
</svg>