<svg version="1.1" id="Layer_1" xmlns="http://www.w3.org/2000/svg" xmlns:xlink="http://www.w3.org/1999/xlink" x="0px" y="0px"
	 viewBox="0 0 141 825" style="enable-background:new 0 0 141 825;" xml:space="preserve">
<g>
	<path class="st0" d="M70.5,812.5V13V812.5z"/>
	<path d="M70.5,825c-6.9,0-12.5-5.6-12.5-12.5V13c0-6.9,5.6-12.5,12.5-12.5S83,6.1,83,13v799.5C83,819.4,77.4,825,70.5,825z"/>
</g>
<path class="st1" d="M607.5,812.5"/>
<g>
	<path d="M12.5,110c-2.4,0-4.9-0.7-7-2.2c-5.7-3.9-7.2-11.7-3.3-17.4l58-85c3.9-5.7,11.7-7.2,17.4-3.3c5.7,3.9,7.2,11.7,3.3,17.4
		l-58,85C20.4,108.1,16.5,110,12.5,110z"/>
	<path d="M128.5,110c-4,0-7.9-1.9-10.3-5.5l-58-85c-3.9-5.7-2.4-13.5,3.3-17.4c5.7-3.9,13.5-2.4,17.4,3.3l58,85
		c3.9,5.7,2.4,13.5-3.3,17.4C133.4,109.3,130.9,110,128.5,110z"/>
</g>
</svg>