<svg version="1.1" id="Layer_1" xmlns="http://www.w3.org/2000/svg" viewBox="0 0 141 825">

    <path d="M83,187.9v187.3c0,6.9-5.6,12.5-12.5,12.5S58,382.2,58,375.3V187.9c0-6.9,5.6-12.5,12.5-12.5S83,181,83,187.9z" />
    <path d="M83,450.2v187.3c0,6.9-5.6,12.5-12.5,12.5S58,644.5,58,637.6V450.2c0-6.9,5.6-12.5,12.5-12.5S83,443.3,83,450.2z" />
    <g>
        <path d="M83,13v100c0,6.9-5.6,12.5-12.5,12.5S58,119.9,58,113V13c0-6.9,5.6-12.5,12.5-12.5S83,6.1,83,13z" />
        <path d="M83,12.5c0,2.4-0.7,4.9-2.2,7l-58,85c-3.9,5.7-11.7,7.2-17.4,3.3c-5.7-3.9-7.2-11.7-3.3-17.4l58-85c3.9-5.7,11.7-7.2,17.4-3.3C81.1,4.6,83,8.5,83,12.5z" />
        <path d="M141,97.5c0,4-1.9,7.9-5.5,10.3c-5.7,3.9-13.5,2.4-17.4-3.3l-58-85c-3.9-5.7-2.4-13.5,3.3-17.4c5.7-3.9,13.5-2.4,17.4,3.3l58,85C140.3,92.6,141,95.1,141,97.5z" />
    </g>
    <g>
        <path d="M83,712.5v100c0,6.9-5.6,12.5-12.5,12.5S58,819.4,58,812.5v-100c0-6.9,5.6-12.5,12.5-12.5S83,705.6,83,712.5z" />
        <path d="M83,812.5c0-2.4-0.7-4.9-2.2-7l-58-85c-3.9-5.7-11.7-7.2-17.4-3.3c-5.7,3.9-7.2,11.7-3.3,17.4l58,85c3.9,5.7,11.7,7.2,17.4,3.3C81.1,820.4,83,816.5,83,812.5z" />
        <path d="M141,727.5c0-4-1.9-7.9-5.5-10.3c-5.7-3.9-13.5-2.4-17.4,3.3l-58,85c-3.9,5.7-2.4,13.5,3.3,17.4c5.7,3.9,13.5,2.4,17.4-3.3l58-85C140.3,732.4,141,729.9,141,727.5z" />
    </g>
</svg>